<mxfile host="65bd71144e">
    <diagram id="_AmEGG0UVL1qAHMBelnh" name="Página-1">
        <mxGraphModel dx="820" dy="470" grid="1" gridSize="10" guides="1" tooltips="1" connect="1" arrows="1" fold="1" page="1" pageScale="1" pageWidth="827" pageHeight="1169" math="0" shadow="0">
            <root>
                <mxCell id="0"/>
                <mxCell id="1" parent="0"/>
                <mxCell id="61" value="loop: enquanto informar mesa (Guard)" style="shape=umlFrame;whiteSpace=wrap;html=1;fillColor=default;width=250;height=20;" vertex="1" parent="1">
                    <mxGeometry x="250" y="330" width="410" height="110" as="geometry"/>
                </mxCell>
                <mxCell id="24" value="sd Seq - RegistrarReserva" style="shape=umlFrame;whiteSpace=wrap;html=1;width=160;height=30;boundedLbl=1;verticalAlign=middle;align=left;spacingLeft=5;fillColor=default;" vertex="1" parent="1">
                    <mxGeometry x="1" y="10" width="1069" height="640" as="geometry"/>
                </mxCell>
                <mxCell id="10" value=":Cliente" style="shape=umlLifeline;perimeter=lifelinePerimeter;whiteSpace=wrap;html=1;container=1;collapsible=0;recursiveResize=0;outlineConnect=0;fillColor=default;" vertex="1" parent="1">
                    <mxGeometry x="460" y="80" width="80" height="500" as="geometry"/>
                </mxCell>
                <mxCell id="36" value="" style="html=1;points=[];perimeter=orthogonalPerimeter;fillColor=default;" vertex="1" parent="10">
                    <mxGeometry x="35" y="115" width="10" height="100" as="geometry"/>
                </mxCell>
                <mxCell id="47" value="" style="html=1;points=[];perimeter=orthogonalPerimeter;fillColor=default;" vertex="1" parent="10">
                    <mxGeometry x="45" y="170" width="10" height="40" as="geometry"/>
                </mxCell>
                <mxCell id="48" value="1.1.1.1:incluir() :void" style="edgeStyle=orthogonalEdgeStyle;html=1;align=left;spacingLeft=2;endArrow=block;rounded=0;entryX=1;entryY=0;" edge="1" parent="10">
                    <mxGeometry x="-1" y="10" relative="1" as="geometry">
                        <mxPoint x="47" y="150" as="sourcePoint"/>
                        <Array as="points">
                            <mxPoint x="137" y="150"/>
                            <mxPoint x="137" y="170"/>
                        </Array>
                        <mxPoint x="52" y="170" as="targetPoint"/>
                        <mxPoint as="offset"/>
                    </mxGeometry>
                </mxCell>
                <mxCell id="11" value=":telaReserva" style="shape=umlLifeline;participant=umlBoundary;perimeter=lifelinePerimeter;whiteSpace=wrap;html=1;container=1;collapsible=0;recursiveResize=0;verticalAlign=top;spacingTop=36;outlineConnect=0;fillColor=default;" vertex="1" parent="1">
                    <mxGeometry x="140" y="80" width="50" height="500" as="geometry"/>
                </mxCell>
                <mxCell id="29" value="" style="html=1;points=[];perimeter=orthogonalPerimeter;fillColor=default;" vertex="1" parent="11">
                    <mxGeometry x="20" y="110" width="10" height="130" as="geometry"/>
                </mxCell>
                <mxCell id="51" value="" style="html=1;points=[];perimeter=orthogonalPerimeter;fillColor=default;" vertex="1" parent="11">
                    <mxGeometry x="20" y="280" width="10" height="30" as="geometry"/>
                </mxCell>
                <mxCell id="65" value="" style="html=1;points=[];perimeter=orthogonalPerimeter;fillColor=default;" vertex="1" parent="11">
                    <mxGeometry x="20" y="390" width="10" height="80" as="geometry"/>
                </mxCell>
                <mxCell id="13" value=":controle" style="shape=umlLifeline;participant=umlControl;perimeter=lifelinePerimeter;whiteSpace=wrap;html=1;container=1;collapsible=0;recursiveResize=0;verticalAlign=top;spacingTop=36;outlineConnect=0;fillColor=default;" vertex="1" parent="1">
                    <mxGeometry x="240" y="70" width="40" height="500" as="geometry"/>
                </mxCell>
                <mxCell id="32" value="" style="html=1;points=[];perimeter=orthogonalPerimeter;fillColor=default;" vertex="1" parent="13">
                    <mxGeometry x="15" y="110" width="10" height="110" as="geometry"/>
                </mxCell>
                <mxCell id="54" value="" style="html=1;points=[];perimeter=orthogonalPerimeter;fillColor=default;" vertex="1" parent="13">
                    <mxGeometry x="15" y="310" width="10" height="30" as="geometry"/>
                </mxCell>
                <mxCell id="68" value="" style="html=1;points=[];perimeter=orthogonalPerimeter;fillColor=default;" vertex="1" parent="13">
                    <mxGeometry x="15" y="420" width="10" height="60" as="geometry"/>
                </mxCell>
                <mxCell id="25" value=":Funcionário_" style="shape=umlLifeline;participant=umlActor;perimeter=lifelinePerimeter;whiteSpace=wrap;html=1;container=1;collapsible=0;recursiveResize=0;verticalAlign=top;spacingTop=36;outlineConnect=0;fillColor=default;" vertex="1" parent="1">
                    <mxGeometry x="30" y="80" width="20" height="500" as="geometry"/>
                </mxCell>
                <mxCell id="28" value="" style="html=1;points=[];perimeter=orthogonalPerimeter;fillColor=default;" vertex="1" parent="25">
                    <mxGeometry x="5" y="110" width="10" height="140" as="geometry"/>
                </mxCell>
                <mxCell id="50" value="" style="html=1;points=[];perimeter=orthogonalPerimeter;fillColor=default;" vertex="1" parent="25">
                    <mxGeometry x="5" y="280" width="10" height="50" as="geometry"/>
                </mxCell>
                <mxCell id="64" value="" style="html=1;points=[];perimeter=orthogonalPerimeter;fillColor=default;" vertex="1" parent="25">
                    <mxGeometry x="5" y="390" width="10" height="80" as="geometry"/>
                </mxCell>
                <mxCell id="26" value=":Mesa" style="shape=umlLifeline;perimeter=lifelinePerimeter;whiteSpace=wrap;html=1;container=1;collapsible=0;recursiveResize=0;outlineConnect=0;fillColor=default;" vertex="1" parent="1">
                    <mxGeometry x="583" y="80" width="100" height="500" as="geometry"/>
                </mxCell>
                <mxCell id="57" value="" style="html=1;points=[];perimeter=orthogonalPerimeter;fillColor=default;" vertex="1" parent="26">
                    <mxGeometry x="45" y="300" width="10" height="30" as="geometry"/>
                </mxCell>
                <mxCell id="27" value=":Reserva" style="shape=umlLifeline;perimeter=lifelinePerimeter;whiteSpace=wrap;html=1;container=1;collapsible=0;recursiveResize=0;outlineConnect=0;fillColor=default;" vertex="1" parent="1">
                    <mxGeometry x="720" y="80" width="100" height="500" as="geometry"/>
                </mxCell>
                <mxCell id="71" value="" style="html=1;points=[];perimeter=orthogonalPerimeter;fillColor=default;" vertex="1" parent="27">
                    <mxGeometry x="45" y="440" width="10" height="30" as="geometry"/>
                </mxCell>
                <mxCell id="30" value="" style="edgeStyle=none;html=1;endArrow=block;endFill=1;exitX=0.9;exitY=0.064;exitDx=0;exitDy=0;exitPerimeter=0;" edge="1" parent="1" source="28" target="29">
                    <mxGeometry relative="1" as="geometry">
                        <mxPoint x="90" y="230" as="sourcePoint"/>
                    </mxGeometry>
                </mxCell>
                <mxCell id="31" value="1:Informar CPF()" style="edgeLabel;html=1;align=center;verticalAlign=bottom;resizable=0;points=[];labelPosition=center;verticalLabelPosition=top;" vertex="1" connectable="0" parent="30">
                    <mxGeometry x="-0.3421" y="-2" relative="1" as="geometry">
                        <mxPoint x="16" y="-7" as="offset"/>
                    </mxGeometry>
                </mxCell>
                <mxCell id="33" value="" style="edgeStyle=none;html=1;endArrow=block;endFill=1;" edge="1" parent="1">
                    <mxGeometry relative="1" as="geometry">
                        <mxPoint x="170" y="216" as="sourcePoint"/>
                        <mxPoint x="255" y="216" as="targetPoint"/>
                    </mxGeometry>
                </mxCell>
                <mxCell id="35" value="1.1:cpf()" style="edgeLabel;html=1;align=center;verticalAlign=bottom;resizable=0;points=[];" vertex="1" connectable="0" parent="33">
                    <mxGeometry x="-0.6471" y="2" relative="1" as="geometry">
                        <mxPoint x="18" as="offset"/>
                    </mxGeometry>
                </mxCell>
                <mxCell id="37" value="" style="edgeStyle=none;html=1;endArrow=block;endFill=1;entryX=0.1;entryY=0.5;entryDx=0;entryDy=0;entryPerimeter=0;" edge="1" parent="1" target="36">
                    <mxGeometry relative="1" as="geometry">
                        <mxPoint x="265" y="239" as="sourcePoint"/>
                        <mxPoint x="365" y="239" as="targetPoint"/>
                    </mxGeometry>
                </mxCell>
                <mxCell id="38" value="1.1.1:consultarCliente(cpf String) :cliente" style="edgeLabel;html=1;align=center;verticalAlign=bottom;resizable=0;points=[];labelPosition=center;verticalLabelPosition=top;" vertex="1" connectable="0" parent="37">
                    <mxGeometry x="-0.52" relative="1" as="geometry">
                        <mxPoint x="48" y="1" as="offset"/>
                    </mxGeometry>
                </mxCell>
                <mxCell id="45" value="" style="html=1;verticalAlign=bottom;endArrow=open;dashed=1;endSize=8;exitX=0.1;exitY=0.96;exitDx=0;exitDy=0;exitPerimeter=0;" edge="1" parent="1" source="36" target="32">
                    <mxGeometry x="0.0043" y="69" relative="1" as="geometry">
                        <mxPoint x="450" y="240" as="sourcePoint"/>
                        <mxPoint x="370" y="240" as="targetPoint"/>
                        <mxPoint as="offset"/>
                    </mxGeometry>
                </mxCell>
                <mxCell id="46" value="Cliente" style="edgeLabel;html=1;align=center;verticalAlign=bottom;resizable=0;points=[];labelPosition=center;verticalLabelPosition=top;" vertex="1" connectable="0" parent="45">
                    <mxGeometry x="0.29" y="-4" relative="1" as="geometry">
                        <mxPoint x="23" y="3" as="offset"/>
                    </mxGeometry>
                </mxCell>
                <mxCell id="49" value="Cliente" style="html=1;verticalAlign=bottom;endArrow=open;dashed=1;endSize=8;exitX=-0.3;exitY=0.982;exitDx=0;exitDy=0;exitPerimeter=0;" edge="1" parent="1" source="32" target="29">
                    <mxGeometry relative="1" as="geometry">
                        <mxPoint x="450" y="240" as="sourcePoint"/>
                        <mxPoint x="370" y="240" as="targetPoint"/>
                    </mxGeometry>
                </mxCell>
                <mxCell id="52" value="" style="edgeStyle=none;html=1;endArrow=block;endFill=1;" edge="1" parent="1">
                    <mxGeometry relative="1" as="geometry">
                        <mxPoint x="45" y="360" as="sourcePoint"/>
                        <mxPoint x="160" y="360" as="targetPoint"/>
                    </mxGeometry>
                </mxCell>
                <mxCell id="53" value="2: Informar Mesa()" style="edgeLabel;html=1;align=center;verticalAlign=bottom;resizable=0;points=[];labelPosition=center;verticalLabelPosition=top;" vertex="1" connectable="0" parent="52">
                    <mxGeometry x="-0.3913" y="-1" relative="1" as="geometry">
                        <mxPoint x="18" y="-1" as="offset"/>
                    </mxGeometry>
                </mxCell>
                <mxCell id="55" value="" style="edgeStyle=none;html=1;endArrow=block;endFill=1;" edge="1" parent="1" source="51" target="54">
                    <mxGeometry relative="1" as="geometry"/>
                </mxCell>
                <mxCell id="56" value="2.1:mesa()" style="edgeLabel;html=1;align=center;verticalAlign=bottom;resizable=0;points=[];labelPosition=center;verticalLabelPosition=top;" vertex="1" connectable="0" parent="55">
                    <mxGeometry x="-0.4824" y="-3" relative="1" as="geometry">
                        <mxPoint x="18" y="-3" as="offset"/>
                    </mxGeometry>
                </mxCell>
                <mxCell id="58" value="" style="edgeStyle=none;html=1;endArrow=block;endFill=1;" edge="1" parent="1">
                    <mxGeometry relative="1" as="geometry">
                        <mxPoint x="265" y="388" as="sourcePoint"/>
                        <mxPoint x="628" y="388" as="targetPoint"/>
                    </mxGeometry>
                </mxCell>
                <mxCell id="59" value="2.1.1:consultarMesa(nro int) :Mesa" style="edgeLabel;html=1;align=center;verticalAlign=bottom;resizable=0;points=[];labelPosition=center;verticalLabelPosition=top;" vertex="1" connectable="0" parent="58">
                    <mxGeometry x="-0.2672" y="1" relative="1" as="geometry">
                        <mxPoint as="offset"/>
                    </mxGeometry>
                </mxCell>
                <mxCell id="60" value="mesa" style="html=1;verticalAlign=bottom;endArrow=open;dashed=1;endSize=8;exitX=-0.3;exitY=0.833;exitDx=0;exitDy=0;exitPerimeter=0;entryX=1;entryY=0.833;entryDx=0;entryDy=0;entryPerimeter=0;" edge="1" parent="1" source="57" target="54">
                    <mxGeometry x="-0.0197" y="25" relative="1" as="geometry">
                        <mxPoint x="450" y="240" as="sourcePoint"/>
                        <mxPoint x="370" y="240" as="targetPoint"/>
                        <mxPoint as="offset"/>
                    </mxGeometry>
                </mxCell>
                <mxCell id="63" value="mesa" style="html=1;verticalAlign=bottom;endArrow=open;dashed=1;endSize=8;exitX=0.1;exitY=0.8;exitDx=0;exitDy=0;exitPerimeter=0;" edge="1" parent="1" source="54" target="51">
                    <mxGeometry x="-0.0169" y="23" relative="1" as="geometry">
                        <mxPoint x="450" y="220" as="sourcePoint"/>
                        <mxPoint x="370" y="220" as="targetPoint"/>
                        <mxPoint as="offset"/>
                    </mxGeometry>
                </mxCell>
                <mxCell id="66" value="" style="edgeStyle=none;html=1;endArrow=block;endFill=1;" edge="1" parent="1">
                    <mxGeometry relative="1" as="geometry">
                        <mxPoint x="45" y="474" as="sourcePoint"/>
                        <mxPoint x="160" y="474" as="targetPoint"/>
                    </mxGeometry>
                </mxCell>
                <mxCell id="67" value="3:confirmarReserva()" style="edgeLabel;html=1;align=center;verticalAlign=bottom;resizable=0;points=[];labelPosition=center;verticalLabelPosition=top;" vertex="1" connectable="0" parent="66">
                    <mxGeometry x="-0.513" y="1" relative="1" as="geometry">
                        <mxPoint x="26" as="offset"/>
                    </mxGeometry>
                </mxCell>
                <mxCell id="69" value="" style="edgeStyle=none;html=1;endArrow=block;endFill=1;" edge="1" parent="1">
                    <mxGeometry relative="1" as="geometry">
                        <mxPoint x="170" y="502" as="sourcePoint"/>
                        <mxPoint x="255" y="502" as="targetPoint"/>
                    </mxGeometry>
                </mxCell>
                <mxCell id="70" value="3.1:reserva()" style="edgeLabel;html=1;align=center;verticalAlign=bottom;resizable=0;points=[];labelPosition=center;verticalLabelPosition=top;" vertex="1" connectable="0" parent="69">
                    <mxGeometry x="-0.4588" y="1" relative="1" as="geometry">
                        <mxPoint x="17" as="offset"/>
                    </mxGeometry>
                </mxCell>
                <mxCell id="72" value="" style="edgeStyle=none;html=1;endArrow=block;endFill=1;" edge="1" parent="1" source="68" target="71">
                    <mxGeometry relative="1" as="geometry"/>
                </mxCell>
                <mxCell id="73" value="3.1.1:incluir() :void" style="edgeLabel;html=1;align=center;verticalAlign=bottom;resizable=0;points=[];labelPosition=center;verticalLabelPosition=top;" vertex="1" connectable="0" parent="72">
                    <mxGeometry x="-0.284" y="1" relative="1" as="geometry">
                        <mxPoint as="offset"/>
                    </mxGeometry>
                </mxCell>
                <mxCell id="74" value=":ContratoReserva" style="shape=umlLifeline;perimeter=lifelinePerimeter;whiteSpace=wrap;html=1;container=1;collapsible=0;recursiveResize=0;outlineConnect=0;fillColor=default;" vertex="1" parent="1">
                    <mxGeometry x="870" y="510" width="100" height="80" as="geometry"/>
                </mxCell>
                <mxCell id="77" value="&amp;lt;&amp;lt;create&amp;gt;&amp;gt;" style="endArrow=open;html=1;rounded=0;align=center;verticalAlign=bottom;dashed=1;endFill=0;labelBackgroundColor=none;exitX=0.54;exitY=0.902;exitDx=0;exitDy=0;exitPerimeter=0;entryX=0;entryY=0.257;entryDx=0;entryDy=0;entryPerimeter=0;" edge="1" parent="1" source="27" target="74">
                    <mxGeometry relative="1" as="geometry">
                        <mxPoint x="660" y="520" as="sourcePoint"/>
                        <mxPoint x="820" y="520" as="targetPoint"/>
                    </mxGeometry>
                </mxCell>
                <mxCell id="78" value="3.1.1.1:new()" style="resizable=0;html=1;align=center;verticalAlign=top;labelBackgroundColor=none;fillColor=default;" connectable="0" vertex="1" parent="77">
                    <mxGeometry relative="1" as="geometry"/>
                </mxCell>
                <mxCell id="79" value="reserva" style="html=1;verticalAlign=bottom;endArrow=open;dashed=1;endSize=8;exitX=0.1;exitY=0.833;exitDx=0;exitDy=0;exitPerimeter=0;entryX=1;entryY=0.917;entryDx=0;entryDy=0;entryPerimeter=0;" edge="1" parent="1" source="71" target="68">
                    <mxGeometry x="-0.1377" relative="1" as="geometry">
                        <mxPoint x="560" y="520" as="sourcePoint"/>
                        <mxPoint x="480" y="520" as="targetPoint"/>
                        <mxPoint as="offset"/>
                    </mxGeometry>
                </mxCell>
                <mxCell id="80" value="reserva" style="html=1;verticalAlign=bottom;endArrow=open;dashed=1;endSize=8;exitX=-0.2;exitY=0.883;exitDx=0;exitDy=0;exitPerimeter=0;" edge="1" parent="1" source="68" target="65">
                    <mxGeometry relative="1" as="geometry">
                        <mxPoint x="440" y="520" as="sourcePoint"/>
                        <mxPoint x="360" y="520" as="targetPoint"/>
                    </mxGeometry>
                </mxCell>
                <mxCell id="82" value="" style="shape=umlDestroy;whiteSpace=wrap;html=1;strokeWidth=3;fillColor=default;" vertex="1" parent="1">
                    <mxGeometry x="905" y="580" width="30" height="30" as="geometry"/>
                </mxCell>
            </root>
        </mxGraphModel>
    </diagram>
</mxfile>